<svg width="927" height="249" viewBox="0 0 927 249" fill="none" xmlns="http://www.w3.org/2000/svg">
<rect width="926.055" height="248.277" fill="white"/>
<path d="M769.224 40.7005C772.572 40.2704 776.356 39.8743 779.648 40.79C784.294 42.0802 787.929 45.9213 790.17 50.0466C795.722 60.2689 795.107 79.2332 791.8 90.0262C789.674 96.9669 786.489 100.759 780.08 104.133C776.627 104.411 773.028 104.806 769.65 103.818C764.788 102.393 761.012 98.4084 758.824 93.9539C753.498 83.1095 753.985 64.3687 758.062 53.2132C760.327 47.015 763.254 43.5112 769.224 40.7005Z" fill="black"/>
<path d="M772.084 49.1227C773.804 49.2474 775.719 49.3536 777.225 50.2847C780.258 52.1611 781.435 56.2323 782.081 59.5082C784.09 69.6811 783.554 85.9981 777.719 94.7533C775.437 94.8056 773.867 95.1871 771.854 93.8721C769.007 92.0118 767.965 88.0528 767.397 84.8858C765.52 74.4058 765.932 58.0349 772.084 49.1227Z" fill="#FFFFFE"/>
<path d="M590.646 122.318C594.066 122.155 597.61 122.1 600.846 123.397C605.605 125.305 609.176 129.911 611.06 134.55C615.451 145.366 615.169 164.062 610.506 174.765C607.845 180.878 604.579 183.448 598.56 185.869C594.984 186.102 591.359 186.219 587.992 184.79C583.456 182.863 580.144 178.517 578.431 174.002C574.138 162.688 574.43 142.716 579.576 131.639C582.077 126.256 585.329 124.21 590.646 122.318Z" fill="black"/>
<path d="M593.406 130.879C595.208 131.522 597.235 132.155 598.537 133.631C603.556 139.318 603.063 151.984 602.63 159.059C602.201 166.058 601.632 172.724 596.127 177.627C594.544 177.07 592.946 176.485 591.684 175.335C587.613 171.621 587.008 163.419 586.795 158.239C586.391 148.488 586.474 138.36 593.406 130.879Z" fill="#FFFFFE"/>
<path d="M714.235 41.2073C722.495 41.0499 731.657 40.1506 739.223 44.1475C742.804 46.0376 745.471 48.9297 746.458 52.9185C748.139 59.7122 745.692 64.5911 742.355 70.294C742.848 74.6396 746.516 77.5258 747.781 81.6365C749.236 86.3591 746.695 92.3834 744.671 96.6091C743.946 97.4334 743.198 98.2388 742.36 98.9526C734.63 105.542 723.123 103.731 713.754 103.305C714.084 82.6049 713.74 61.9116 714.235 41.2073Z" fill="black"/>
<path d="M724.868 74.1462C727.156 74.48 729.905 74.6949 732.032 75.6256C734.008 76.4914 735.837 78.6555 736.551 80.6677C737.86 84.3451 736.04 89.211 734.381 92.4762C732.955 93.0202 731.441 93.6839 729.948 93.9993C727.799 94.4506 727.009 93.8313 725.396 92.5407C723.319 87.3253 724.654 79.8 724.868 74.1462Z" fill="#FFFFFE"/>
<path d="M724.832 49.9863C726.838 50.069 728.937 50.1802 730.891 50.6741C732.744 51.1426 734.374 52.4064 735.221 54.1069C736.962 57.5976 735.499 61.2145 734.358 64.6461C732.725 65.6326 730.155 66.9151 728.23 66.9524C726.6 66.9839 726.266 66.3103 725.191 65.2477C723.623 60.6715 724.577 54.7906 724.832 49.9863Z" fill="#FFFFFE"/>
<path d="M804.57 41.5828C809.902 41.4655 815.366 41.1593 820.685 41.4817C825.913 41.8007 831.181 43.3836 834.639 47.5585C837.947 51.5534 838.66 56.8576 838.05 61.8598C837.226 68.5966 834.961 72.1788 829.69 76.247C833.065 85.2643 836.127 94.2022 838.793 103.458C836.087 103.511 831.743 104.227 829.198 103.384C827.188 102.718 827.131 101.401 826.414 99.628C824.48 93.1916 822.874 85.4903 819.276 79.7977C818.389 78.3934 818.428 78.3762 816.859 78.0138C812.459 84.6129 817.516 98.2508 813.945 103.304C810.906 103.615 808.193 103.558 805.158 103.214C804.762 102.709 804.167 102.311 803.971 101.701C803.409 99.9474 804.703 49.475 804.57 41.5828Z" fill="black"/>
<path d="M815.593 50.4257C817.562 50.4232 819.882 50.2843 821.783 50.8301C823.844 51.4235 825.845 53.3168 826.666 55.2804C828.247 59.0639 826.65 63.4433 825.094 66.9339C823.367 67.7989 820.772 69.0593 818.832 68.9941C816.985 68.9306 816.708 68.2855 815.523 67.0257C813.938 62.0445 815.193 55.5969 815.593 50.4257Z" fill="#FFFFFE"/>
<path d="M624 123.078C627.761 122.975 631.537 122.85 635.302 122.89C642.337 122.964 649.761 125.074 654.65 130.412C657.345 133.354 659.068 137.237 658.802 141.284C658.36 147.98 653.881 154.023 649.209 158.437C653.046 167.096 655.88 176.176 658.901 185.143C655.826 185.271 651.564 185.931 648.651 184.958C647 184.406 647.167 183.705 646.472 182.21C644.877 176.663 643.508 170.589 641.001 165.388C640.02 163.35 639.32 161.554 637.165 160.776C633.261 165.449 634.79 178.806 634.829 184.769L624.019 184.794L624 123.078Z" fill="black"/>
<path d="M634.502 132.141C636.528 132.195 638.867 132.134 640.807 132.755C642.951 133.443 645.011 135.214 645.929 137.274C647.652 141.141 646.164 145.284 644.77 148.974C643.769 149.24 642.767 149.51 641.754 149.731C639.04 150.323 637.746 150.374 635.427 148.911C633.252 144.4 634.446 137.157 634.502 132.141Z" fill="#FFFFFE"/>
<path d="M563.027 41.0728C568.04 40.9738 573.162 40.7363 578.162 41.1116C583.561 41.516 589.522 42.9175 593.073 47.3415C596.476 51.5856 596.699 57.245 596.238 62.435C595.701 68.4821 592.66 71.5066 588.247 75.1288C591.073 84.6241 594.678 93.9224 598.064 103.233C595.178 103.409 590.139 104.276 587.552 103.072C585.609 102.169 585.584 101.015 584.885 99.1637C583.195 93.7048 580.89 80.7262 576.763 77.1946L575.313 77.3635C571.644 83.2754 573.673 95.0368 573.187 102.031C570.35 103.773 565.789 103.268 562.441 103.443L563.027 41.0728Z" fill="black"/>
<path d="M573.898 49.7329C575.989 49.904 578.402 49.9717 580.383 50.6973C582.461 51.4577 584.369 53.2989 585.166 55.3711C586.569 59.0156 584.54 63.547 582.882 66.7381C579.799 67.8368 577.603 68.496 574.629 67.1034C572.055 62.3094 573.551 55.0885 573.898 49.7329Z" fill="#FFFFFE"/>
<path d="M515.97 40.9124C518.994 40.8159 521.863 40.894 524.871 41.2181C529.692 44.2185 537.657 70.9779 540.579 78.0844C539.505 67.992 538.858 56.1324 539.484 46.0071C539.641 43.4687 540.461 42.8132 542.184 41.2028C544.656 40.5064 545.847 40.5197 548.317 41.2557C552.488 46.0686 550.125 94.443 550.079 103.017C547.526 103.015 543.787 103.478 541.409 102.652C538.029 101.481 527.266 69.9696 524.984 64.8894C525.006 69.9211 526.81 98.8055 525.728 101.446C525.511 101.977 524.942 102.28 524.549 102.697C521.647 102.797 519.221 102.696 516.401 101.983C514.03 91.0227 515.908 54.6507 515.97 40.9124Z" fill="black"/>
<path d="M454.448 65.4131C454.761 57.5407 454.478 49.6687 455.231 41.8129L456.388 40.9547C459.276 40.9824 461.722 41.088 464.511 41.864C465.661 46.7608 466.689 98.8136 464.945 102.285L461.965 103.259C459.808 103.18 457.608 103.396 455.773 102.11C452.236 95.2493 454.407 83.0107 454.526 75.2592L441.415 75.2291C441.227 82.8197 443.83 94.9652 440.06 101.351C436.799 103.274 434.092 102.745 430.378 102.773L431.16 40.827L441.329 40.8578L441.308 65.4191L454.448 65.4131Z" fill="black"/>
<path d="M454.333 122.834L464.905 122.925C464.906 138.945 466.556 169.04 464.344 183.421L462.745 184.509C460.298 184.658 457.463 185.216 455.338 183.803C451.553 177.523 453.909 164.982 453.996 157.526L441.312 157.397L441.148 184.481L430.216 184.687L430.643 123.147L441.201 122.952L441.149 147.433L453.995 147.401L454.333 122.834Z" fill="black"/>
<path d="M860.33 40.8575C863.09 40.5383 866.62 40.1637 869.321 40.9506C873.805 42.2546 880.109 47.3443 882.259 51.4583C883.554 53.9365 882.906 55.4213 882.024 57.8291C880.444 59.0599 880.102 59.2767 878.122 59.5802C868.344 61.0803 872.432 53.5241 866.764 49.345C864.173 49.4676 862.802 50.1694 861.055 52.2083C855.916 58.2087 857.036 75.3878 857.667 83.2021C857.973 86.9895 858.983 91.2825 862.182 93.6966C863.937 95.0206 865.514 94.8834 867.568 94.5502C869.107 93.3445 870.051 92.426 870.89 90.6264C872.232 87.7452 872.932 84.5145 871.768 81.4913C869.484 80.836 867.292 79.9572 865.077 79.105C863.547 77.5309 863.326 76.8592 863.011 74.7848C863.712 73.5444 864.17 72.7478 865.244 71.7681C865.495 71.5401 865.765 71.3311 866.025 71.1125L882.87 70.849C883.028 79.8632 885.002 94.6124 881.477 102.729C877.098 104.73 877.109 100.921 875.281 100.932C869.816 100.967 866.74 106.555 858.717 103.569C854.559 102.023 851.58 98.6416 849.702 94.7125C844.514 83.8589 844.761 64.5708 848.742 53.3915C851.056 46.8971 854.218 43.7106 860.33 40.8575Z" fill="black"/>
<path d="M653.349 40.8294L664.362 41.1691C659.635 49.2 655.705 57.7445 651.066 65.8559L662.644 94.3826C663.699 96.947 665.338 99.6308 664.527 102.417C661.908 104.093 657.509 103.354 654.463 103.264C652.482 96.9804 649.469 81.6919 643.643 78.4626C639.645 83.028 640.567 96.0323 639.824 102.204L638.511 103.005C636.091 103.124 632.217 103.853 630.135 102.557C628.247 83.2187 629.817 60.8208 629.813 41.1446C632.905 41.0135 635.805 40.6362 638.731 41.8364C643.246 46.7949 640.654 58.6467 640.524 65.3391C645.212 57.4736 649.156 48.9795 653.349 40.8294Z" fill="black"/>
<path d="M700.421 123.154L711.994 123.198C716.825 143.634 721.103 164.235 725.813 184.707C722.191 185.011 718.527 185.095 714.893 185.261L711.897 170.879L699.994 170.856L696.885 185.261C693.39 185.295 690.221 185.464 686.857 184.343C686.095 180.575 698.668 131.579 700.421 123.154Z" fill="black"/>
<path d="M705.835 139.158C708.101 143.813 709.715 153.648 709.408 158.902C709.299 160.79 708.373 161.067 707.003 162.261L703.157 161.035C700.323 155.925 704.483 144.636 705.835 139.158Z" fill="#FFFFFE"/>
<path d="M908.49 40.112C911.157 40.4827 913.911 41.0916 916.313 42.3491C921.514 45.0697 923.145 50.6845 924.986 55.8143C922.632 56.3724 919.644 57.394 917.233 56.9733C914.05 56.4187 912.375 53.7035 910.747 51.1978C909.946 49.9639 909.686 50.0974 908.368 49.5811C906.803 50.1848 905.579 50.6693 904.515 52.0304C897.132 61.4665 924 71.0085 925.156 84.1707C925.552 88.6848 923.965 96.1482 920.69 99.5504C916.597 103.8 910.916 104.472 905.37 104.779C904.115 104.388 902.866 103.988 901.638 103.519C894.938 100.958 892.702 94.882 889.948 88.8426L896.972 86.3916C903.607 87.7219 901.895 92.0081 905.709 95.8968C906.316 95.9579 906.711 96.0375 907.297 95.9724C909.925 95.6844 912.358 93.4624 913.914 91.4751C916.026 79.9234 894.57 71.8291 892.008 58.9699C891.152 54.6771 892.376 50.9116 894.782 47.3501C898.36 42.0511 902.618 41.21 908.49 40.112Z" fill="black"/>
<path d="M510.363 122.188C514.769 122.117 517.878 122.078 521.877 124.285C525.212 126.128 529.112 128.658 530.001 132.633C530.57 135.171 529.708 136.974 528.336 139.043C521.575 141.049 518.638 131.853 512.501 132.055C511.053 132.103 510.826 132.898 509.889 133.897C506.93 145.844 526.617 150.452 531.207 165.665C532.272 169.189 532.648 173.051 530.689 176.353C527.503 181.722 521.139 184.567 515.422 186.144C512.38 185.723 509.274 185.345 506.484 183.971C500.456 181.003 498.726 174.706 496.646 168.86C497.169 168.732 497.694 168.61 498.219 168.496C509.919 165.938 504.336 170.637 510.613 174.51C512.242 175.515 514.782 176.198 516.671 175.66C518.212 175.22 519.614 173.784 520.28 172.332C523.939 164.362 502.922 153.451 499.312 145.12C497.237 140.33 497.885 135.845 499.943 131.18C502.306 125.826 505.24 124.255 510.363 122.188Z" fill="black"/>
<path d="M682.769 40.462C685.128 40.3957 687.704 40.2652 690.05 40.5786C694.338 41.1526 697.66 43.5497 700.081 47.0733C701.903 49.7243 702.463 51.7503 701.902 54.8915C700.882 56.0178 700.656 56.6084 699.139 57.0435C692.125 59.0565 691.669 51.5686 686.877 49.1105C684.608 49.3944 683.686 50.4201 682.117 51.9204C679.814 61.316 700.089 71.5464 703.744 83.3111C704.905 87.0465 705.423 91.3149 703.309 94.8266C700.248 99.9091 694.554 102.84 689.089 104.473C686.191 104.346 683.142 104.309 680.416 103.213C673.96 100.619 671.605 93.9788 668.856 88.1601C672.206 87.1202 675.758 85.4472 679.119 86.8232C679.88 88.796 680.594 91.1754 682.202 92.6346C683.86 94.1412 686.158 94.4372 688.279 94.5059C690.896 93.3527 691.374 92.9802 693.076 90.6827C694.938 81.1744 675.891 71.1922 671.976 61.7893C670.233 57.6052 670.356 53.6011 672.138 49.4553C674.348 44.3097 677.893 42.4539 682.769 40.462Z" fill="black"/>
<path d="M477.655 40.9438C485.979 40.7661 494.938 39.9798 503.169 41.1619C504.614 41.368 504.509 41.7995 505.336 42.92C505.511 45.3377 506.185 47.2112 504.613 49.1701C499.934 50.926 493.447 50.0293 488.465 49.9125L488.446 65.6159C491.897 65.4887 496.729 64.8141 499.944 66.1614C502.112 67.0702 503.563 68.3636 504.436 70.5573C504.176 71.6946 503.68 72.2878 502.819 73.0457C498.933 76.4672 493.492 75.4308 488.684 75.2449L488.59 91.1736C488.727 91.9287 489.195 92.4748 489.603 93.1154C494.907 93.9089 500.662 93.2015 506.019 92.9487C506.309 95.9844 506.831 98.6612 505.396 101.388C498.587 105.472 485.416 102.87 477.379 102.812C477.586 82.1903 477.678 61.5672 477.655 40.9438Z" fill="black"/>
<path d="M537.066 123.001C545.723 123.093 555.199 121.487 563.708 122.726C566.693 123.161 568.484 123.859 570.343 126.244C571.017 128.748 571 129.627 570.147 132.076C566.909 133.703 562.321 133.074 558.746 133.06L558.72 174.54C558.829 177.669 559.294 180.843 557.869 183.72C555.186 185.635 551.146 184.866 547.971 184.75C548.196 167.671 548.294 150.591 548.264 133.51C544.843 133.483 540.729 134.02 537.762 132.139C536.051 129.323 536.785 126.15 537.066 123.001Z" fill="black"/>
<path d="M607.322 41.089C610.491 41.0605 614.772 40.4841 617.421 42.3898C619.876 55.2914 618.038 88.0138 618.004 103.101L606.957 103.255C607.467 82.5597 607.11 61.797 607.322 41.089Z" fill="black"/>
<path d="M668.665 123.237C670.265 123.199 671.888 123.134 673.486 123.222C675.549 123.338 677.24 123.244 678.669 124.75C680.806 143.505 679.391 166.031 678.808 185.014L668.143 185.172C668.577 164.53 668.751 143.882 668.665 123.237Z" fill="black"/>
<path d="M477.537 123.17L487.748 123.376C489.362 143.473 487.829 164.473 487.938 184.709L477.132 184.814L477.537 123.17Z" fill="black"/>
<path d="M133.369 1.69722C139.849 0.550293 145.004 -0.766527 151.366 1.58729L151.359 14.9944L202.246 22.9316L202.274 14.2766C205.799 13.3953 210.106 12.4256 213.73 12.381C215.276 12.3623 216.752 12.6532 217.816 13.8572C220.093 16.432 219.264 22.2279 219.176 25.4599C231.827 28.0448 244.825 29.411 257.557 31.6623L257.664 23.7499C261.212 23.4455 268.048 22.0121 271.082 23.9441C273.357 26.8385 272.618 31.0173 272.552 34.5073L291.621 37.1671C303.977 47.2121 315.92 57.7474 328.347 67.7225C312.153 65.224 295.427 64.429 279.11 62.6702L279.075 143.333C287.916 142.74 296.875 141.259 305.683 140.194L305.666 111.293C309.258 111.054 312.892 111.04 316.491 110.928L316.55 138.633C317.778 138.512 319.342 138.247 320.543 138.58C325.392 139.926 339.233 147.095 344.545 149.673C341.54 159.238 337.223 168.955 332.93 178.022C328.554 177.718 324.182 177.37 319.813 176.977C313.798 190.114 309.675 204.125 303.569 217.278L297.787 203.494C290.733 211.656 284.054 220.277 276.647 228.109L274.993 207.771L264.053 211.399C261.576 208.943 259.015 206.573 256.374 204.293C252.48 211.323 249.173 218.705 245.649 225.927C242.077 233.248 238.283 240.456 234.922 247.88C231.572 240.437 227.867 232.817 223.819 225.73C208.277 230.806 193.072 238.368 177.991 244.736C181.418 236.85 185.662 229.348 188.989 221.405C182.812 222.934 176.406 223.8 170.119 224.773C166.444 210.473 164.295 210.373 152.651 201.66C149.107 210.223 147.01 219.873 144.447 228.788C135.193 220.906 125.881 213.09 116.513 205.342C116.163 212.91 115.173 220.586 114.184 228.097C105.758 215.874 97.9895 202.867 90.293 190.163L76.1053 187.937C74.9456 193.645 73.9081 199.377 72.993 205.131C67.8357 199.925 63.388 194.081 58.5642 188.572C56.262 192.393 54.5841 196.577 52.2668 200.422C46.3399 193.739 41.223 185.731 35.9156 178.512C29.0342 175.567 22.0376 172.84 15.1018 170.023C12.7229 173.049 10.7394 176.446 8.66296 179.686C5.75001 177.779 2.95728 175.691 0.143657 173.642C7.22327 169.225 14.9449 165.95 21.8495 161.218C21.802 149.688 21.8285 138.157 21.9274 126.627C30.0118 126.469 80.4421 125.689 85.4251 127.602C86.1546 127.882 86.6677 128.125 87.4669 128.035C87.6642 128.013 87.8591 127.975 88.0556 127.943L89.4669 128.988C90.4538 128.725 90.8215 128.435 91.5444 127.761C91.3069 126.209 89.8564 126.465 89.4222 125.03C91.6067 123.993 94.3995 125.596 96.2754 124.056C96.0259 120.497 93.6131 123.366 91.761 121.663C92.527 120.302 94.5375 120.972 96.0486 120.366L96.2648 119.229C95.6573 118.689 95.0239 118.275 94.8865 117.425C96.8718 115.654 99.3921 117.447 101.698 116.395L102.044 115.16L101.6 114.413C100.434 114.225 99.2788 114.081 98.1037 113.976L98.3932 113.192C101.055 112.056 104.114 113.721 106.765 112.636C107.08 111.63 107.106 111.551 106.786 110.553C105.195 109.637 102.774 110.369 100.885 109.893C101.208 109.311 101.149 109.226 101.802 108.909C103.777 107.949 107.661 108.441 109.643 109.219C110.042 108.089 110.194 107.799 109.976 106.584C108.577 105.858 106.582 106.627 105.008 106.458C104.217 106.374 104.355 106.3 103.903 105.727C106.957 102.558 117.427 106.675 121.853 103.941L122.085 104.229L123.782 105.065L123.533 105.723C121.946 105.912 120.31 105.999 118.813 106.589C118.272 107.433 118.368 108.263 118.374 109.225C121.227 108.99 124.015 108.879 126.879 108.939L127.512 109.549C126.613 109.852 125.8 109.995 124.86 110.135C123.909 110.277 123.383 110.331 122.652 111.01C122.611 112.025 122.608 112.058 123.196 112.884C125.081 113.044 129.224 112.543 130.626 113.479C129.651 114.125 128.083 114.863 127.621 115.91C128.762 116.943 129.478 116.967 130.993 116.894C131.888 116.851 132.624 116.67 133.416 117.172L132.751 120.018L133.284 120.8C134.586 120.974 136.646 120.771 137.465 121.751C134.795 123.37 129.995 120.488 127.793 123.282L128.257 124.637C130.752 125.394 138.488 123.491 139.872 125.491C139.152 126.391 138.483 126.88 138.423 128.05C140.318 129.104 142.096 127.96 143.706 129.137C143.166 130.489 142.033 129.934 141.749 131.579L142.301 132.509C143.015 132.528 143.141 132.682 143.713 132.206L144.366 130.876C145.289 130.599 146.128 130.21 146.998 129.806C146.587 126.757 118.956 93.3606 114.765 87.5791L72.8273 87.5943L72.9008 49.2385C86.2877 35.2231 101.02 22.0985 115.154 8.81534C121.106 10.1237 127.214 10.8964 133.238 11.8253L133.369 1.69722Z" fill="black"/>
<path d="M121.853 103.941L122.085 104.229L123.782 105.065L123.533 105.723C121.946 105.912 120.31 105.999 118.813 106.589C118.271 107.433 118.368 108.263 118.374 109.225C121.227 108.99 124.015 108.879 126.879 108.939L127.512 109.549C126.613 109.852 125.799 109.995 124.86 110.134C123.909 110.277 123.382 110.331 122.652 111.01C122.611 112.025 122.607 112.058 123.196 112.884C125.081 113.044 129.224 112.543 130.626 113.478C129.651 114.125 128.082 114.863 127.621 115.91C128.762 116.943 129.477 116.967 130.993 116.894C131.888 116.851 132.624 116.67 133.416 117.172L132.751 120.018L133.284 120.8C134.586 120.974 136.646 120.771 137.465 121.751C134.795 123.37 129.995 120.488 127.793 123.282L128.256 124.637C130.751 125.394 138.488 123.491 139.872 125.491C139.152 126.391 138.483 126.88 138.422 128.05C140.318 129.104 142.096 127.96 143.706 129.137C143.166 130.489 142.033 129.934 141.748 131.578L142.301 132.509C143.015 132.528 143.141 132.682 143.712 132.206C144.252 133.391 144.736 134.232 144.518 135.551C143.534 136.288 142.432 136.403 141.256 136.632L140.565 137.978C139.133 137.959 137.726 137.804 136.304 137.653C134.742 137.43 133.65 137.258 132.315 136.389C128.841 136.444 125.308 136.365 121.847 136.676L121.286 136.576L120.938 136.712L120.83 137.816C122.002 137.855 122.659 137.62 123.508 138.469C123.455 139.183 123.432 139.78 123.236 140.469C123.356 141.426 123.445 142.346 123.778 143.258C123.27 144.13 123.175 144.221 122.134 144.465C119.359 145.114 111.609 145.433 109.214 143.848C109.282 142.862 109.421 141.816 109.393 140.831C109.2 139.897 109.235 138.913 109.205 137.96L109.882 136.588L101.811 136.052L101.376 136.117C98.3159 136.225 94.829 136.681 91.8261 136.111L91.5479 136.201L91.0891 134.543C89.5166 133.316 87.4266 133.72 85.5036 133.793L85.5599 132.258L85.1667 130.698C86.0186 129.646 87.5885 130.492 89.4213 129.257L89.4667 128.988C90.4536 128.725 90.8213 128.435 91.5443 127.761C91.3067 126.209 89.8562 126.465 89.422 125.03C91.6065 123.993 94.3993 125.596 96.2752 124.056C96.0257 120.497 93.6129 123.366 91.7609 121.663C92.5268 120.302 94.5373 120.971 96.0485 120.366L96.2646 119.229C95.6572 118.689 95.0237 118.275 94.8863 117.425C96.8716 115.654 99.3919 117.447 101.698 116.395L102.043 115.16L101.599 114.413C100.434 114.225 99.2786 114.081 98.1035 113.976L98.393 113.192C101.055 112.056 104.114 113.721 106.764 112.636C107.079 111.63 107.106 111.551 106.786 110.553C105.195 109.637 102.773 110.369 100.885 109.893C101.207 109.311 101.149 109.226 101.802 108.909C103.777 107.949 107.661 108.441 109.643 109.218C110.042 108.089 110.194 107.799 109.976 106.584C108.576 105.858 106.581 106.627 105.008 106.458C104.217 106.374 104.355 106.3 103.903 105.727C106.957 102.558 117.426 106.675 121.853 103.941Z" fill="#111111"/>
<path d="M121.853 103.941L122.085 104.229L123.782 105.065L123.533 105.723C121.946 105.912 120.31 105.999 118.813 106.589C118.271 107.433 118.368 108.263 118.373 109.224C117.837 111.949 118.629 115.01 119.068 117.73C117.636 119.56 115.207 118.893 113.749 120.646C114.472 121.383 114.914 121.27 115.918 121.393L112.077 122.325C111.964 122.237 111.838 122.164 111.738 122.062C109.384 119.659 109.699 112.338 109.643 109.218C110.042 108.089 110.194 107.799 109.976 106.584C108.576 105.858 106.581 106.627 105.008 106.458C104.217 106.374 104.354 106.3 103.903 105.727C106.957 102.557 117.426 106.675 121.853 103.941Z" fill="black"/>
<path d="M89.4217 129.257C89.5206 129.311 89.6188 129.368 89.7202 129.418C92.1077 130.609 94.4525 128.84 96.1681 131.397C93.6411 133.501 88.6022 131.623 85.5603 132.258L85.1671 130.698C86.019 129.646 87.5889 130.492 89.4217 129.257Z" fill="#FFFFFE"/>
<path d="M120.938 136.712C118.374 136.66 115.662 136.772 113.15 136.234L112.791 135.6C113.853 134.247 115.268 133.556 116.988 133.388C118.569 133.234 119.889 133.465 121.116 134.485C121.193 135.184 121.288 135.871 121.286 136.576L120.938 136.712Z" fill="#FFFFFE"/>
<path d="M121.848 136.676C122.061 135.404 121.964 135.045 122.93 134.141C125.528 133.585 128.309 133.226 130.869 134.223C131.888 134.62 131.94 135.444 132.315 136.389C128.842 136.444 125.308 136.366 121.848 136.676Z" fill="#FFFFFE"/>
<path d="M101.811 136.052C102.027 135.279 102.012 134.51 102.742 134.101C104.831 132.932 108.312 133.458 110.425 134.209C111.218 134.491 111.198 134.594 111.621 135.326L111.261 136.275L109.883 136.589L101.811 136.052Z" fill="#FFFFFE"/>
<path d="M91.8248 136.111C92.0695 135.231 92.0386 134.423 92.9426 134.003C94.783 133.146 98.1423 133.216 100.005 133.963C100.445 134.139 100.638 134.357 100.961 134.69L101.375 136.117C98.3146 136.225 94.8277 136.681 91.8248 136.111Z" fill="#FFFFFE"/>
<path d="M109.205 137.96C111.332 137.879 113.626 137.514 115.574 138.49L116.112 139.279C115.35 140.243 114.899 140.545 113.643 140.749C112.275 140.971 110.794 140.675 109.393 140.831C109.199 139.897 109.235 138.913 109.205 137.96Z" fill="#FFFFFE"/>
<path d="M120.829 137.816C122.001 137.855 122.657 137.62 123.506 138.469C123.453 139.183 123.43 139.78 123.234 140.469L122.522 140.515C120.272 140.653 118.941 140.855 117.15 139.264L117.237 138.638C118.38 137.746 119.425 137.845 120.829 137.816Z" fill="#FFFFFE"/>
<path d="M95.9605 129.8C98.9187 129.799 104.428 128.844 106.64 130.838L106.585 132.643C103.539 132.485 98.7361 133.415 96.2356 131.708L95.9605 129.8Z" fill="#FFFFFE"/>
<path d="M127.333 129.93C129.902 129.99 134.875 128.925 137.004 130.434C137.55 130.822 137.44 132.036 137.499 132.68C135.045 132.706 130.223 133.727 128.169 132.303C127.47 131.819 127.497 130.741 127.333 129.93Z" fill="#FFFFFE"/>
<path d="M122.337 118.052C124.711 118.088 129.15 117.298 131.201 118.432C131.925 118.832 132.041 119.925 132.296 120.692C130.066 120.877 124.858 121.904 123.041 120.549C122.402 120.073 122.457 118.827 122.337 118.052Z" fill="#FFFFFE"/>
<path d="M117.212 122.118C119.542 122.245 124.7 121.223 126.485 122.66C127.086 123.144 126.998 124.306 127.092 125.058C124.678 124.901 120.297 125.832 118.262 124.64C117.315 124.086 117.402 123.102 117.212 122.118Z" fill="#FFFFFE"/>
<path d="M122.081 126.082C124.504 126.064 129.299 125.157 131.339 126.514C131.978 126.939 132.014 127.976 132.196 128.703C129.706 128.787 125.541 129.648 123.294 128.47C122.348 127.974 122.348 127.032 122.081 126.082Z" fill="#FFFFFE"/>
<path d="M117.324 129.911C119.757 129.974 123.935 128.987 126.003 130.379C126.585 130.771 126.511 132.018 126.595 132.69C124.33 132.651 120.436 133.507 118.46 132.371C117.482 131.808 117.551 130.923 117.324 129.911Z" fill="#FFFFFE"/>
<path d="M101.886 126.033C104.222 125.85 108.773 125.561 110.88 126.191C111.892 126.493 111.993 127.443 112.369 128.335C109.993 128.715 105.558 129.389 103.293 128.393C102.246 127.934 102.222 127.03 101.886 126.033Z" fill="#FFFFFE"/>
<path d="M112.492 126.043C114.833 126.146 119.215 125.148 121.146 126.55C121.697 126.951 121.64 128.122 121.727 128.773C119.509 128.774 115.617 129.652 113.673 128.495C112.723 127.929 112.745 127.035 112.492 126.043Z" fill="#FFFFFE"/>
<path d="M107.169 129.944C109.007 129.843 110.855 129.723 112.695 129.696C114.214 129.673 115.302 129.711 116.414 130.792L116.33 132.513C114.087 132.435 109.871 133.33 108.003 132.08C107.464 131.72 107.341 130.558 107.169 129.944Z" fill="#FFFFFE"/>
<path d="M96.6561 117.922C98.1629 117.848 99.5647 117.786 101.068 117.999C102.141 118.963 102.074 119.322 102.371 120.694C100.851 120.808 99.3988 120.905 97.8724 120.798C96.695 119.77 96.8613 119.425 96.6561 117.922Z" fill="#FFFFFE"/>
<path d="M132.386 126.027C133.764 125.922 135.123 125.895 136.504 125.901C137.907 126.77 137.734 127.153 138.12 128.703C136.658 128.807 135.262 128.9 133.796 128.747C132.674 127.816 132.734 127.406 132.386 126.027Z" fill="#FFFFFE"/>
<path d="M136.304 137.653C137.726 137.805 139.133 137.96 140.565 137.978L141.239 138.605C141.429 138.498 141.617 138.388 141.808 138.284C142.465 137.926 142.935 137.871 143.686 137.871C144.398 139.03 144.223 139.657 144.203 140.995L144.271 142.776C144.373 144.977 144.037 147.181 144.059 149.389C144.103 150.594 144.191 151.815 144.17 153.02C141.441 152.717 138.602 152.902 135.853 152.869L135.939 149.856L135.695 149.075C135.808 148.04 135.82 146.974 135.872 145.932C136.03 143.55 135.005 140.135 136.037 138.087L136.304 137.653Z" fill="#111111"/>
<path d="M135.941 149.856C137.733 149.873 139.41 149.832 141.131 150.416L140.657 150.99L140.747 151.084C140.85 151.002 140.952 150.919 141.057 150.839C142.066 150.06 142.819 149.664 144.061 149.389C144.104 150.593 144.193 151.815 144.171 153.019C141.443 152.717 138.604 152.902 135.855 152.869L135.941 149.856Z" fill="#FFFFFE"/>
<path d="M136.303 137.653C137.725 137.805 139.132 137.96 140.564 137.978L141.238 138.606C141.428 138.499 141.616 138.388 141.807 138.284C142.464 137.926 142.934 137.871 143.685 137.871C144.397 139.03 144.222 139.657 144.202 140.995C141.937 140.198 141.08 140.758 138.933 140.868C137.599 140.936 137.089 140.887 136.092 140.039L136.036 138.087L136.303 137.653Z" fill="#FFFFFE"/>
<path d="M135.872 145.932C137.69 145.919 138.785 145.717 140.399 146.632L140.486 147.493C138.976 149 137.755 148.893 135.695 149.075C135.808 148.04 135.82 146.973 135.872 145.932Z" fill="#FFFFFE"/>
<path d="M135.852 152.869C138.601 152.902 141.44 152.717 144.169 153.019C145.189 155.955 142.815 160.231 144.265 162.625C141.909 161.682 138.376 162.113 135.827 162.106L135.804 161.185C135.704 160.091 135.868 158.986 135.969 157.897C135.984 155.969 135.169 154.886 135.852 152.869Z" fill="#111111"/>
<path d="M135.971 157.897C137.676 157.956 138.752 157.808 140.267 158.716L140.62 159.682C140.002 160.497 139.674 161.015 138.594 161.147C137.695 161.257 136.712 161.198 135.805 161.186C135.706 160.092 135.869 158.987 135.971 157.897Z" fill="#FFFFFE"/>
<path d="M135.828 162.106C138.377 162.114 141.91 161.682 144.266 162.625L144.144 163.431C143.41 164.317 143.031 164.252 141.932 164.427C140.005 164.734 137.573 164.962 135.907 163.747L135.828 162.106Z" fill="#FFFFFE"/>
<path d="M85.5037 133.794C87.4266 133.72 89.5166 133.316 91.0891 134.544L91.5479 136.202L90.5678 136.819C88.7606 136.901 87.2945 137.025 85.603 136.232C85.0374 135.164 85.2517 134.94 85.5037 133.794Z" fill="#FFFFFE"/>
<path d="M160.504 50.9819C180.086 53.4854 199.903 54.6925 219.535 56.879L219.308 150.521L213.692 151.078L160.636 157.377L160.504 50.9819Z" fill="#FFFFFE"/>
<path d="M169.566 62.0533C174.804 62.3348 180.035 62.5913 185.253 63.1408L185.144 90.0631L169.475 89.8662L169.566 62.0533Z" fill="black"/>
<path d="M169.534 108.967L185.056 108.784C185.095 113.343 186.11 132.823 184.646 135.793C179.62 136.405 174.496 136.557 169.44 136.855C169.411 127.559 169.442 118.263 169.534 108.967Z" fill="black"/>
<path d="M198.121 64.0396C202.969 64.2804 207.828 64.7442 212.67 65.1024C212.763 73.6378 212.728 82.1738 212.567 90.7078L198.14 90.5175L198.121 64.0396Z" fill="black"/>
<path d="M211.49 108.132L212.208 108.288C213.477 110.514 212.66 129.776 212.637 133.774C208.33 133.864 203.983 134.301 199.684 134.605L198.854 134.588C197.354 132.469 198.249 112.236 198.266 108.348L211.49 108.132Z" fill="black"/>
<path d="M222.836 57.2529C240.457 58.281 258.255 60.5904 275.821 62.449L275.749 143.845C270.608 144.471 247.202 148.123 244 146.97L243.767 145.63C243.894 135.464 243.905 125.297 243.797 115.13C239.533 115.144 235.259 115.311 230.995 115.419L230.971 149.145C228.223 149.367 225.471 149.719 222.727 150.007L222.836 57.2529Z" fill="#FFFFFE"/>
<path d="M230.404 66.4595C234.99 66.5849 239.589 66.9309 244.17 67.187C244.227 75.3361 244.223 83.4851 244.156 91.6339L230.358 91.4249L230.404 66.4595Z" fill="black"/>
<path d="M256.909 68.2715C261.146 68.5852 265.385 68.8573 269.628 69.0886L269.562 92.3767C265.336 92.1421 261.092 92.1414 256.86 92.0741L256.909 68.2715Z" fill="black"/>
<path d="M262.711 106.319L269.506 106.128L269.51 129.201C267.24 129.544 264.902 129.607 262.61 129.75L256.881 130.129L256.94 106.416L262.711 106.319Z" fill="black"/>
<path d="M107.67 150.052C108.109 148.665 108.378 147.377 109.536 146.4C110.062 146.578 110.271 146.563 110.637 146.994C110.923 147.33 111.199 147.583 111.538 147.859C112.739 147.22 113.088 145.046 114.885 145.72C115.72 146.034 116.182 146.589 116.77 147.224C118.804 146.686 120.727 146.083 122.853 146.256L123.767 147.022C123.707 147.775 123.643 148.512 123.526 149.259L123.646 149.54C123.842 150.623 124.128 151.744 124.11 152.849L123.692 155.67L122.9 156.223L121.341 155.942L120.953 157.011L121.446 158.575C121.531 158.519 121.608 158.452 121.7 158.407C122.336 158.094 123.114 158.169 123.806 158.166C124.334 159.132 124.296 159.537 124.022 160.621C123.898 161.108 123.678 161.593 123.49 162.056L123.96 163.375C123.282 164.317 123.12 164.298 121.957 164.471C119.097 164.894 115.752 164.523 112.848 164.536L112.45 164.152C109.456 164.768 105.148 164.933 102.218 164.07L101.861 164.067C99.081 164.742 95.3311 164.775 92.5565 164.077L92.1887 164.025C90.5969 164.602 87.5283 164.863 85.9135 164.393C85.0458 164.14 85.1826 164.009 84.782 163.276L85.1664 162.091C84.7197 160.235 84.9133 158.674 85.2273 156.84C85.0388 155.762 85.2385 154.949 85.4777 153.908C85.3517 151.906 84.7964 150.687 85.1243 148.583C85.0973 147.929 85.1924 147.362 85.2802 146.713C87.3083 146.084 89.9255 145.55 91.975 146.298C92.9174 146.641 92.923 147.224 93.3167 148.087C93.4074 148.1 93.4964 148.12 93.588 148.126C94.734 148.209 95.3571 147.536 96.2327 148.405C96.4088 149.459 96.296 149.655 97.1122 150.316C100.256 150.01 104.063 149.666 107.148 150.325L107.67 150.052Z" fill="#111111"/>
<path d="M97.1106 150.316C100.254 150.01 104.061 149.666 107.147 150.325C106.969 150.994 106.731 151.651 106.516 152.309C106.247 152.469 106.067 152.593 105.786 152.709C103.639 153.59 100.713 153.605 98.5793 152.68C97.4599 152.196 97.4739 151.386 97.1106 150.316Z" fill="#FFFFFE"/>
<path d="M120.95 157.011C118.711 156.939 113.862 157.381 112.171 156.14C112.208 156.04 112.23 155.932 112.281 155.839C112.722 155.028 113.881 154.421 114.717 154.113C116.725 153.377 118.922 153.592 120.855 154.421L121.338 155.942L120.95 157.011Z" fill="#FFFFFE"/>
<path d="M107.67 150.052C110.335 149.972 113.46 149.468 115.945 150.546C116.465 151.371 116.543 151.928 116.67 152.872C113.942 153.004 110.747 153.571 108.176 152.52C107.573 151.584 107.624 151.119 107.67 150.052Z" fill="#FFFFFE"/>
<path d="M112.847 164.536L113.005 163.263C114.737 161.308 120.78 162.296 123.488 162.056L123.959 163.375C123.28 164.317 123.119 164.298 121.955 164.47C119.095 164.894 115.751 164.523 112.847 164.536Z" fill="#FFFFFE"/>
<path d="M102.217 164.07L102.774 162.712C105.556 161.749 108.404 162.159 111.236 162.623C111.871 163.114 112.129 163.415 112.449 164.152C109.455 164.768 105.147 164.933 102.217 164.07Z" fill="#FFFFFE"/>
<path d="M85.123 148.583C85.096 147.929 85.1911 147.362 85.279 146.713C87.307 146.085 89.9242 145.55 91.9737 146.298C92.9162 146.641 92.9217 147.224 93.3154 148.087C91.2891 149.111 87.8495 148.777 85.5948 148.684C85.4341 148.677 85.2803 148.617 85.123 148.583Z" fill="#FFFFFE"/>
<path d="M92.5544 164.077L93.0216 162.631C95.6483 161.538 98.198 161.899 100.903 162.409C101.539 162.935 101.646 163.28 101.859 164.067C99.0789 164.743 95.329 164.775 92.5544 164.077Z" fill="#FFFFFE"/>
<path d="M85.4772 153.908C87.445 153.887 89.4091 153.626 91.1417 154.689L91.5645 155.583C90.6321 156.529 89.9588 156.911 88.5936 156.935C87.474 156.955 86.3454 156.893 85.2268 156.841C85.0383 155.762 85.238 154.949 85.4772 153.908Z" fill="#FFFFFE"/>
<path d="M124.108 152.849C122.155 152.884 119.078 153.326 117.367 152.4L117.126 151.201L117.965 150.507C119.259 150.284 120.228 150.214 121.52 150.502C122.156 150.644 123.066 149.876 123.644 149.54C123.84 150.624 124.127 151.745 124.108 152.849Z" fill="#FFFFFE"/>
<path d="M85.1651 162.091C87.0738 162.07 90.1353 161.624 91.6579 162.828L92.1874 164.025C90.5956 164.602 87.527 164.863 85.9122 164.393C85.0446 164.14 85.1813 164.009 84.7807 163.275L85.1651 162.091Z" fill="#FFFFFE"/>
<path d="M97.1536 158.211C99.5543 158.154 103.996 157.29 106.08 158.593C106.777 159.03 106.864 160.169 107.088 160.942C104.718 161.138 100.316 161.955 98.2641 160.727C97.3679 160.191 97.3815 159.152 97.1536 158.211Z" fill="#FFFFFE"/>
<path d="M107.158 158.242C109.577 158.158 113.877 157.369 115.96 158.672C116.703 159.138 116.72 160.2 116.93 161.026C114.549 161.208 110.393 161.966 108.304 160.718C107.469 160.22 107.424 159.147 107.158 158.242Z" fill="#FFFFFE"/>
<path d="M87.5581 150.007C89.7171 150.106 94.4219 149.143 96.1148 150.538C96.7065 151.026 96.6469 152.152 96.7553 152.897C94.5204 152.873 90.0887 153.801 88.2643 152.409C87.6152 151.914 87.6806 150.795 87.5581 150.007Z" fill="#FFFFFE"/>
<path d="M87.6204 158.25C89.8848 158.107 93.8166 157.446 95.8164 158.513C96.7743 159.025 96.7516 159.979 97.0102 160.952C94.7799 161.123 90.5666 161.895 88.6503 160.706C87.7499 160.148 87.8175 159.21 87.6204 158.25Z" fill="#FFFFFE"/>
<path d="M102.511 154.028C104.738 154.182 109.268 153.356 111.086 154.572C111.723 154.998 111.757 155.902 111.951 156.621C109.756 156.851 104.734 157.888 103.026 156.397C102.45 155.894 102.578 154.773 102.511 154.028Z" fill="#FFFFFE"/>
<path d="M92.6542 153.987C94.9836 154.214 98.8765 153.408 100.827 154.632C101.584 155.107 101.632 156.114 101.875 156.948C98.9813 156.888 95.2743 157.936 92.8766 156.042L92.6542 153.987Z" fill="#FFFFFE"/>
<path d="M109.533 33.2314L120.956 33.1853L120.745 53.6905L109.445 53.5529L109.533 33.2314Z" fill="#FFFFFE"/>
<path d="M67.0566 133.318L78.3691 133.503L78.3302 146.255L67.1865 146.215L67.0566 133.318Z" fill="#FFFFFE"/>
<path d="M48.0449 133.382L59.2394 133.453L59.2615 146.132L48.0726 146.129L48.0449 133.382Z" fill="#FFFFFE"/>
<path d="M28.9374 133.431L40.0289 133.387L40.0635 146.028L28.9996 146.002L28.9374 133.431Z" fill="#FFFFFE"/>
<path d="M85.2285 141.327C85.1114 140.299 84.9863 139.613 85.4859 138.653C86.4329 138.336 87.4016 137.996 88.3916 137.844C90.0977 137.584 91.8455 137.654 93.2077 138.724L93.0234 140.17C93.0505 141.677 93.2718 142.568 92.4302 143.892C90.0164 145.148 89.0752 145.027 86.5463 144.232C85.5456 143.916 85.479 143.926 84.9271 143.066C84.9981 142.512 85.0027 141.834 85.2285 141.327Z" fill="#111111"/>
<path d="M85.2276 141.327C85.1106 140.299 84.9854 139.613 85.485 138.653C86.432 138.336 87.4008 137.996 88.3908 137.845C90.0968 137.584 91.8447 137.654 93.2069 138.724L93.0226 140.17C90.9616 140.601 89.3884 140.617 87.3088 140.36L85.2276 141.327Z" fill="#FFFFFE"/>
<path d="M45.9108 91.2087L111.355 91.2217C107.425 95.3768 86.9696 122.087 85.3106 122.951C84.9957 123.116 84.2298 123.146 83.8526 123.213L18.1625 123.077C26.4978 111.968 36.7244 101.681 45.9108 91.2087Z" fill="black"/>
<path d="M285.163 70.5445C289.084 70.8601 293.008 71.1374 296.935 71.3764L296.864 93.1779L285.064 93.0735L285.163 70.5445Z" fill="black"/>
<path d="M285.221 105.686L296.862 105.603C296.93 112.829 296.85 120.064 296.836 127.291C292.936 127.416 289.026 127.7 285.129 127.908L285.221 105.686Z" fill="black"/>
<path d="M306 71.915C309.627 72.3458 313.284 72.4461 316.931 72.6038C316.963 79.5592 316.954 86.5145 316.907 93.4698L305.963 93.2754L306 71.915Z" fill="black"/>
<path d="M121.854 103.941L120.934 102.627C116.867 102.133 110.321 103.405 106.859 102.216C107.113 101.319 107.119 101.191 107.823 100.598C110.042 100.906 114.519 101.99 116.44 100.882C116.574 100.805 116.681 100.691 116.801 100.595C116.879 99.6547 117.066 99.531 116.51 98.7184C114.914 98.7236 110.395 99.0828 109.344 98.0769C110.045 97.5114 110.805 97.3189 111.65 97.0592C112.249 95.602 111.385 94.8662 112.479 93.787C113.703 93.7911 114.364 93.6359 115.422 94.2864C114.187 95.0831 113.36 94.6036 112.928 96.1127L113.414 96.9602C114.898 97.2861 117.557 96.8667 118.595 97.7319C118.242 99.0089 117.692 99.866 118.372 101.068L122.13 101.724C122.524 102.649 122.303 103.298 122.086 104.23L121.854 103.941Z" fill="#111111"/>
</svg>
